<?xml version="1.0" encoding="UTF-8"?>
<svg id="Calque_1" xmlns="http://www.w3.org/2000/svg" version="1.1" xmlns:xlink="http://www.w3.org/1999/xlink" viewBox="0 0 595.28 595.28">
  <!-- Generator: Adobe Illustrator 29.5.1, SVG Export Plug-In . SVG Version: 2.1.0 Build 141)  -->
  <defs>
    <style>
      .st0 {
        fill: url(#Dégradé_sans_nom_915);
      }

      .st1 {
        fill: url(#Dégradé_sans_nom_92);
      }

      .st2 {
        fill: url(#Dégradé_sans_nom_99);
      }

      .st3 {
        fill: url(#Dégradé_sans_nom_97);
      }

      .st4 {
        fill: #fff;
      }

      .st5 {
        fill: url(#Dégradé_sans_nom_913);
      }

      .st6 {
        fill: url(#Dégradé_sans_nom_93);
      }

      .st7 {
        fill: url(#Dégradé_sans_nom_94);
      }

      .st8 {
        fill: url(#Dégradé_sans_nom_910);
      }

      .st9 {
        fill: url(#Dégradé_sans_nom_914);
      }

      .st10 {
        fill: url(#Dégradé_sans_nom_9);
      }

      .st11 {
        fill: url(#Dégradé_sans_nom_98);
      }

      .st12 {
        fill: url(#Dégradé_sans_nom_912);
      }

      .st13 {
        fill: url(#Dégradé_sans_nom_91);
      }

      .st14 {
        fill: url(#Dégradé_sans_nom_911);
      }

      .st15 {
        fill: url(#Dégradé_sans_nom_916);
      }

      .st16 {
        fill: url(#Dégradé_sans_nom_96);
      }

      .st17 {
        fill: url(#Dégradé_sans_nom_95);
      }
    </style>
    <linearGradient id="Dégradé_sans_nom_9" data-name="Dégradé sans nom 9" x1="200.39" y1="496.6" x2="200.18" y2="461.07" gradientUnits="userSpaceOnUse">
      <stop offset="0" stop-color="#ff9100"/>
      <stop offset="1" stop-color="#ed6f01"/>
    </linearGradient>
    <linearGradient id="Dégradé_sans_nom_91" data-name="Dégradé sans nom 9" x1="211.76" y1="496.54" x2="211.55" y2="461" xlink:href="#Dégradé_sans_nom_9"/>
    <linearGradient id="Dégradé_sans_nom_92" data-name="Dégradé sans nom 9" x1="223.99" y1="496.46" x2="223.78" y2="460.93" xlink:href="#Dégradé_sans_nom_9"/>
    <linearGradient id="Dégradé_sans_nom_93" data-name="Dégradé sans nom 9" x1="238.2" y1="496.38" x2="237.99" y2="460.84" xlink:href="#Dégradé_sans_nom_9"/>
    <linearGradient id="Dégradé_sans_nom_94" data-name="Dégradé sans nom 9" x1="248.62" y1="496.32" x2="248.41" y2="460.78" xlink:href="#Dégradé_sans_nom_9"/>
    <linearGradient id="Dégradé_sans_nom_95" data-name="Dégradé sans nom 9" x1="258.47" y1="496.26" x2="258.26" y2="460.72" xlink:href="#Dégradé_sans_nom_9"/>
    <linearGradient id="Dégradé_sans_nom_96" data-name="Dégradé sans nom 9" x1="274.26" y1="496.17" x2="274.05" y2="460.63" xlink:href="#Dégradé_sans_nom_9"/>
    <linearGradient id="Dégradé_sans_nom_97" data-name="Dégradé sans nom 9" x1="286.58" y1="496.09" x2="286.37" y2="460.56" xlink:href="#Dégradé_sans_nom_9"/>
    <linearGradient id="Dégradé_sans_nom_98" data-name="Dégradé sans nom 9" x1="298.66" y1="496.02" x2="298.45" y2="460.48" xlink:href="#Dégradé_sans_nom_9"/>
    <linearGradient id="Dégradé_sans_nom_99" data-name="Dégradé sans nom 9" x1="310.05" y1="495.95" x2="309.84" y2="460.42" xlink:href="#Dégradé_sans_nom_9"/>
    <linearGradient id="Dégradé_sans_nom_910" data-name="Dégradé sans nom 9" x1="320.46" y1="495.89" x2="320.25" y2="460.36" xlink:href="#Dégradé_sans_nom_9"/>
    <linearGradient id="Dégradé_sans_nom_911" data-name="Dégradé sans nom 9" x1="334.63" y1="495.81" x2="334.42" y2="460.27" xlink:href="#Dégradé_sans_nom_9"/>
    <linearGradient id="Dégradé_sans_nom_912" data-name="Dégradé sans nom 9" x1="345.86" y1="495.74" x2="345.65" y2="460.2" xlink:href="#Dégradé_sans_nom_9"/>
    <linearGradient id="Dégradé_sans_nom_913" data-name="Dégradé sans nom 9" x1="363.38" y1="495.64" x2="363.17" y2="460.1" xlink:href="#Dégradé_sans_nom_9"/>
    <linearGradient id="Dégradé_sans_nom_914" data-name="Dégradé sans nom 9" x1="375.59" y1="495.57" x2="375.38" y2="460.03" xlink:href="#Dégradé_sans_nom_9"/>
    <linearGradient id="Dégradé_sans_nom_915" data-name="Dégradé sans nom 9" x1="386.08" y1="495.5" x2="385.87" y2="459.97" xlink:href="#Dégradé_sans_nom_9"/>
    <linearGradient id="Dégradé_sans_nom_916" data-name="Dégradé sans nom 9" x1="396.29" y1="495.44" x2="396.08" y2="459.91" xlink:href="#Dégradé_sans_nom_9"/>
  </defs>
  <g>
    <path class="st4" d="M302.01,151.31v-18.68c7.86-1.95,13.69-9.06,13.69-17.53,0-9.98-8.09-18.06-18.06-18.06s-18.06,8.09-18.06,18.06c0,8.47,5.83,15.57,13.69,17.53v18.68c-19.38,2.17-34.45,18.61-34.45,38.57h77.63c0-19.96-15.07-36.39-34.45-38.57Z"/>
    <path class="st4" d="M267.04,276.56c0,6.39-5.18,11.58-11.58,11.58s-11.57-5.19-11.57-11.58,5.18-11.57,11.57-11.57,11.58,5.18,11.58,11.57Z"/>
    <path class="st4" d="M309.21,276.56c0,6.39-5.18,11.58-11.57,11.58s-11.57-5.19-11.57-11.58,5.18-11.57,11.57-11.57,11.57,5.18,11.57,11.57Z"/>
    <path class="st4" d="M366.72,258.16c-11.98-18.08-36.91-30.51-65.72-30.51-40.49,0-73.32,24.55-73.32,54.83,0,6.46,1.5,12.65,4.24,18.4-4.86-7.33-7.59-15.58-7.59-24.32,0-30.28,32.82-54.83,73.31-54.83,31.86,0,58.97,15.2,69.08,36.43Z"/>
    <path class="st4" d="M351.39,276.56c0,6.39-5.18,11.58-11.57,11.58s-11.57-5.19-11.57-11.58,5.18-11.57,11.57-11.57,11.57,5.18,11.57,11.57Z"/>
    <path class="st4" d="M366.72,258.16c-11.98-18.08-36.91-30.51-65.72-30.51-40.49,0-73.32,24.55-73.32,54.83,0,6.46,1.5,12.65,4.24,18.4-4.86-7.33-7.59-15.58-7.59-24.32,0-30.28,32.82-54.83,73.31-54.83,31.86,0,58.97,15.2,69.08,36.43Z"/>
    <path class="st4" d="M393.66,222.48c-13.57-18.53-33.92-32.87-57.97-40.33-11.9-3.7-24.7-5.71-38.05-5.71s-26.15,2.01-38.05,5.71c-24.05,7.46-44.4,21.8-57.97,40.33-10.72,0-20.42,4.35-27.45,11.37-7.03,7.02-11.37,16.73-11.37,27.45,0,15.83,9.49,29.44,23.09,35.48,10.65,45.61,56.64,79.91,111.75,79.91,6.84,0,13.53-.53,20.04-1.54l-8.47,46.83,70.65-76h0c14.65-13.39,25.12-30.32,29.54-49.2,13.59-6.04,23.08-19.65,23.08-35.48,0-21.44-17.38-38.82-38.82-38.82ZM297.64,337.5c-44.99,0-81.47-27.28-81.47-60.94s36.48-60.94,81.47-60.94,81.47,27.29,81.47,60.94-36.47,60.94-81.47,60.94Z"/>
    <g>
      <path class="st4" d="M267.04,276.56c0,6.39-5.18,11.58-11.58,11.58s-11.57-5.19-11.57-11.58,5.18-11.57,11.57-11.57,11.58,5.18,11.58,11.57Z"/>
      <path class="st4" d="M309.21,276.56c0,6.39-5.18,11.58-11.57,11.58s-11.57-5.19-11.57-11.58,5.18-11.57,11.57-11.57,11.57,5.18,11.57,11.57Z"/>
      <path class="st4" d="M351.39,276.56c0,6.39-5.18,11.58-11.57,11.58s-11.57-5.19-11.57-11.58,5.18-11.57,11.57-11.57,11.57,5.18,11.57,11.57Z"/>
    </g>
  </g>
  <g>
    <path class="st4" d="M233.56,416.66v8.68h-99.41v-8.76l99.41.08ZM228.78,440.24v8.6h-94.63v-8.6h94.63ZM134.15,463.74h99.41v8.76h-99.41v-8.76Z"/>
    <path class="st4" d="M324.2,463.82v8.68h-81.09v-55.76h9.08v47.08h72.01Z"/>
    <path class="st4" d="M330.58,468.71c0-1.05.4-1.98,1.2-2.8.8-.81,1.75-1.22,2.87-1.22s2.1.41,2.95,1.22c.85.82,1.27,1.75,1.27,2.8s-.43,1.96-1.27,2.72c-.85.76-1.83,1.14-2.95,1.14s-2.07-.38-2.87-1.14c-.8-.76-1.2-1.67-1.2-2.72Z"/>
    <path class="st4" d="M395.41,416.82c.96,1.01,2.59,2.76,4.9,5.26,2.31,2.5,5,5.43,8.08,8.8,3.08,3.37,6.4,7.01,9.96,10.91,3.56,3.9,7.08,7.75,10.55,11.55,3.48,3.8,6.74,7.38,9.8,10.75,3.05,3.37,5.62,6.2,7.69,8.48h-12.11c-.05-.05-.65-.7-1.79-1.95-1.14-1.25-2.63-2.87-4.46-4.86-1.83-1.99-3.9-4.25-6.21-6.77-2.31-2.52-4.67-5.11-7.09-7.77-2.42-2.66-4.78-5.24-7.09-7.77-2.31-2.52-4.37-4.77-6.17-6.73-1.81-1.96-3.82-4.17-6.05-6.61l-30.83,33.77h49.47l7.97,8.68h-77.58l50.98-55.76Z"/>
    <path class="st4" d="M451.97,472.5v-55.76h9.16v55.76h-9.16Z"/>
  </g>
  <rect class="st4" x="134.18" y="477.84" width="326.92" height="20.4"/>
  <g>
    <path class="st10" d="M203.33,490.84h-5.95l-1.23,2.8h-1.65l5.07-11.2h1.58l5.09,11.2h-1.68l-1.23-2.8ZM202.77,489.56l-2.42-5.49-2.42,5.49h4.83Z"/>
    <path class="st13" d="M207.91,482.44h1.6v9.81h6.06v1.39h-7.66v-11.2Z"/>
    <path class="st1" d="M232.41,482.44l-3.74,11.2h-1.68l-3.06-8.94-3.06,8.94h-1.71l-3.74-11.2h1.65l3.02,9.1,3.15-9.1h1.47l3.09,9.15,3.09-9.15h1.52Z"/>
    <path class="st6" d="M241.14,490.84h-5.95l-1.23,2.8h-1.65l5.07-11.2h1.58l5.09,11.2h-1.68l-1.23-2.8ZM240.58,489.56l-2.42-5.49-2.42,5.49h4.83Z"/>
    <path class="st7" d="M249.33,489.77v3.87h-1.58v-3.9l-4.45-7.3h1.71l3.58,5.9,3.6-5.9h1.58l-4.45,7.33Z"/>
    <path class="st17" d="M255.98,493.38c-.78-.26-1.4-.6-1.85-1.02l.59-1.25c.43.38.97.7,1.64.94.67.24,1.35.36,2.06.36.93,0,1.62-.16,2.08-.47.46-.31.69-.73.69-1.26,0-.38-.12-.7-.38-.94-.25-.24-.56-.42-.93-.55s-.89-.27-1.56-.43c-.84-.2-1.52-.41-2.04-.61-.52-.2-.96-.51-1.33-.94-.37-.42-.55-.99-.55-1.7,0-.6.16-1.14.47-1.62.31-.48.79-.86,1.43-1.15.64-.29,1.43-.43,2.38-.43.66,0,1.31.09,1.95.26.64.17,1.19.42,1.65.74l-.53,1.28c-.47-.3-.97-.53-1.5-.68-.53-.15-1.06-.23-1.57-.23-.91,0-1.59.17-2.04.5-.45.33-.68.76-.68,1.28,0,.38.13.7.38.94s.57.43.95.56c.38.13.89.28,1.54.42.84.2,1.52.41,2.03.61.51.2.95.51,1.32.93.37.42.55.98.55,1.68,0,.59-.16,1.12-.48,1.61-.32.49-.81.87-1.46,1.15s-1.45.42-2.4.42c-.84,0-1.66-.13-2.44-.39Z"/>
    <path class="st16" d="M279.03,482.44v11.2h-1.6v-4.99h-6.43v4.99h-1.6v-11.2h1.6v4.82h6.43v-4.82h1.6Z"/>
    <path class="st3" d="M289.53,490.84h-5.95l-1.23,2.8h-1.65l5.07-11.2h1.58l5.09,11.2h-1.68l-1.23-2.8ZM288.97,489.56l-2.42-5.49-2.42,5.49h4.83Z"/>
    <path class="st11" d="M301.89,483.48c.83.69,1.25,1.65,1.25,2.86s-.42,2.17-1.25,2.86-1.97,1.04-3.42,1.04h-2.77v3.39h-1.6v-11.2h4.37c1.45,0,2.59.35,3.42,1.04ZM300.74,488.21c.53-.43.8-1.05.8-1.86s-.27-1.43-.8-1.86c-.53-.43-1.31-.65-2.32-.65h-2.72v5.02h2.72c1.01,0,1.79-.22,2.32-.65Z"/>
    <path class="st2" d="M313.29,483.48c.83.69,1.25,1.65,1.25,2.86s-.42,2.17-1.25,2.86-1.97,1.04-3.42,1.04h-2.77v3.39h-1.6v-11.2h4.37c1.45,0,2.59.35,3.42,1.04ZM312.13,488.21c.53-.43.8-1.05.8-1.86s-.27-1.43-.8-1.86c-.53-.43-1.31-.65-2.32-.65h-2.72v5.02h2.72c1.01,0,1.79-.22,2.32-.65Z"/>
    <path class="st8" d="M321.17,489.77v3.87h-1.58v-3.9l-4.45-7.3h1.71l3.58,5.9,3.6-5.9h1.58l-4.45,7.33Z"/>
    <path class="st14" d="M333.77,483.84h-3.84v-1.39h9.26v1.39h-3.84v9.81h-1.58v-9.81Z"/>
    <path class="st12" d="M342.77,493.03c-.91-.5-1.62-1.18-2.14-2.06s-.78-1.85-.78-2.93.26-2.05.78-2.93c.52-.87,1.23-1.56,2.14-2.06.91-.5,1.93-.74,3.06-.74s2.13.25,3.04.74c.91.5,1.62,1.18,2.13,2.05.51.87.77,1.85.77,2.94s-.26,2.07-.77,2.94c-.51.87-1.22,1.55-2.13,2.05-.91.5-1.92.74-3.04.74s-2.15-.25-3.06-.74ZM348.05,491.79c.66-.37,1.17-.89,1.55-1.54.38-.66.57-1.39.57-2.2s-.19-1.54-.57-2.2-.9-1.17-1.55-1.54-1.39-.56-2.22-.56-1.57.19-2.23.56-1.19.89-1.57,1.54c-.38.66-.57,1.39-.57,2.2s.19,1.54.57,2.2c.38.66.9,1.17,1.57,1.54.67.37,1.41.56,2.23.56s1.56-.19,2.22-.56Z"/>
    <path class="st5" d="M368.15,482.44v11.2h-1.6v-4.99h-6.43v4.99h-1.6v-11.2h1.6v4.82h6.43v-4.82h1.6Z"/>
    <path class="st9" d="M379.64,492.25v1.39h-8.13v-11.2h7.9v1.39h-6.3v3.44h5.62v1.36h-5.62v3.62h6.53Z"/>
    <path class="st0" d="M382.23,482.44h1.6v9.81h6.06v1.39h-7.66v-11.2Z"/>
    <path class="st15" d="M399.53,483.48c.83.69,1.25,1.65,1.25,2.86s-.42,2.17-1.25,2.86-1.97,1.04-3.42,1.04h-2.77v3.39h-1.6v-11.2h4.37c1.45,0,2.59.35,3.42,1.04ZM398.37,488.21c.53-.43.8-1.05.8-1.86s-.27-1.43-.8-1.86c-.53-.43-1.31-.65-2.32-.65h-2.72v5.02h2.72c1.01,0,1.79-.22,2.32-.65Z"/>
  </g>
</svg>