<?xml version="1.0" encoding="UTF-8"?>
<svg id="Calque_1" xmlns="http://www.w3.org/2000/svg" version="1.1" xmlns:xlink="http://www.w3.org/1999/xlink" viewBox="0 0 326.98 401.2">
  <!-- Generator: Adobe Illustrator 29.5.1, SVG Export Plug-In . SVG Version: 2.1.0 Build 141)  -->
  <defs>
    <style>
      .st0 {
        fill: #ff9100;
      }

      .st1 {
        fill: url(#Dégradé_sans_nom_11);
      }

      .st2 {
        fill: url(#Dégradé_sans_nom_7);
      }

      .st3 {
        fill: url(#Dégradé_sans_nom_4);
      }

      .st3, .st4, .st5, .st6 {
        isolation: isolate;
      }

      .st3, .st5 {
        mix-blend-mode: hard-light;
        opacity: .6;
      }

      .st7 {
        fill: url(#Dégradé_sans_nom_6);
      }

      .st8 {
        fill: url(#Dégradé_sans_nom_14);
      }

      .st9 {
        fill: url(#Dégradé_sans_nom_13);
      }

      .st10, .st4 {
        fill: #fff;
      }

      .st4 {
        opacity: .12;
      }

      .st5 {
        fill: url(#Dégradé_sans_nom_12);
      }

      .st11 {
        fill: url(#Dégradé_sans_nom_9);
      }

      .st12 {
        fill: url(#Dégradé_sans_nom_16);
      }

      .st13 {
        fill: url(#Dégradé_sans_nom_3);
      }

      .st14 {
        fill: url(#Dégradé_sans_nom_15);
      }

      .st15 {
        fill: url(#Dégradé_sans_nom_5);
      }

      .st16 {
        fill: url(#Dégradé_sans_nom_10);
      }

      .st17 {
        fill: url(#Dégradé_sans_nom_8);
      }
    </style>
    <linearGradient id="Dégradé_sans_nom_3" data-name="Dégradé sans nom 3" x1="111.17" y1="369.68" x2="239.41" y2="314.72" gradientTransform="translate(0 401.2) scale(1 -1)" gradientUnits="userSpaceOnUse">
      <stop offset="0" stop-color="#ff9100"/>
      <stop offset="1" stop-color="#ed6f01"/>
    </linearGradient>
    <linearGradient id="Dégradé_sans_nom_4" data-name="Dégradé sans nom 4" x1="163.49" y1="268.5" x2="163.49" y2="354.6" gradientTransform="translate(0 401.2) scale(1 -1)" gradientUnits="userSpaceOnUse">
      <stop offset="0" stop-color="#231f20"/>
      <stop offset="1" stop-color="#231f20"/>
    </linearGradient>
    <linearGradient id="Dégradé_sans_nom_5" data-name="Dégradé sans nom 5" x1="90.17" y1="236.94" x2="232.56" y2="236.94" gradientTransform="translate(0 401.2) scale(1 -1)" gradientUnits="userSpaceOnUse">
      <stop offset="0" stop-color="#ff9100"/>
      <stop offset="1" stop-color="#ed6f01"/>
    </linearGradient>
    <linearGradient id="Dégradé_sans_nom_6" data-name="Dégradé sans nom 6" x1="162.57" y1="110.22" x2="164.32" y2="349.6" gradientTransform="translate(0 401.2) scale(1 -1)" gradientUnits="userSpaceOnUse">
      <stop offset="0" stop-color="#ff9100"/>
      <stop offset="1" stop-color="#ed6f01"/>
    </linearGradient>
    <linearGradient id="Dégradé_sans_nom_7" data-name="Dégradé sans nom 7" x1="278.3" y1="192.65" x2="166.88" y2="162.26" gradientTransform="translate(0 401.2) scale(1 -1)" gradientUnits="userSpaceOnUse">
      <stop offset="0" stop-color="#ff9100"/>
      <stop offset="1" stop-color="#ed6f01"/>
    </linearGradient>
    <linearGradient id="Dégradé_sans_nom_8" data-name="Dégradé sans nom 8" x1="423.72" y1="31.13" x2="83.65" y2="277.31" gradientTransform="translate(0 401.2) scale(1 -1)" gradientUnits="userSpaceOnUse">
      <stop offset="0" stop-color="#ff9100"/>
      <stop offset="1" stop-color="#ed6f01"/>
    </linearGradient>
    <linearGradient id="Dégradé_sans_nom_9" data-name="Dégradé sans nom 9" x1="109.74" y1="221.68" x2="132.88" y2="221.68" gradientTransform="translate(0 401.2) scale(1 -1)" gradientUnits="userSpaceOnUse">
      <stop offset="0" stop-color="#ff9100"/>
      <stop offset="1" stop-color="#ed6f01"/>
    </linearGradient>
    <linearGradient id="Dégradé_sans_nom_10" data-name="Dégradé sans nom 10" x1="151.92" y1="221.68" x2="175.06" y2="221.68" gradientTransform="translate(0 401.2) scale(1 -1)" gradientUnits="userSpaceOnUse">
      <stop offset="0" stop-color="#ff9100"/>
      <stop offset="1" stop-color="#ed6f01"/>
    </linearGradient>
    <linearGradient id="Dégradé_sans_nom_11" data-name="Dégradé sans nom 11" x1="194.1" y1="221.68" x2="217.24" y2="221.68" gradientTransform="translate(0 401.2) scale(1 -1)" gradientUnits="userSpaceOnUse">
      <stop offset="0" stop-color="#ff9100"/>
      <stop offset="1" stop-color="#ed6f01"/>
    </linearGradient>
    <linearGradient id="Dégradé_sans_nom_12" data-name="Dégradé sans nom 12" x1="129.07" y1="267.86" x2="374.1" y2="-45.87" gradientTransform="translate(0 401.2) scale(1 -1)" gradientUnits="userSpaceOnUse">
      <stop offset="0" stop-color="#231f20"/>
      <stop offset="1" stop-color="#231f20"/>
    </linearGradient>
    <linearGradient id="Dégradé_sans_nom_13" data-name="Dégradé sans nom 13" x1="171.31" y1="238.64" x2="98.8" y2="272.3" gradientTransform="translate(0 401.2) scale(1 -1)" gradientUnits="userSpaceOnUse">
      <stop offset="0" stop-color="#ff9100"/>
      <stop offset="1" stop-color="#ed6f01"/>
    </linearGradient>
    <linearGradient id="Dégradé_sans_nom_14" data-name="Dégradé sans nom 14" x1="102.32" y1="345.42" x2="171.2" y2="165.87" gradientTransform="translate(0 401.2) scale(1 -1)" gradientUnits="userSpaceOnUse">
      <stop offset="0" stop-color="#ff9100"/>
      <stop offset="1" stop-color="#ed6f01"/>
    </linearGradient>
    <linearGradient id="Dégradé_sans_nom_15" data-name="Dégradé sans nom 15" x1="121.57" y1="176.58" x2="101.63" y2="247.73" gradientTransform="translate(0 401.2) scale(1 -1)" gradientUnits="userSpaceOnUse">
      <stop offset="0" stop-color="#ff9100"/>
      <stop offset="1" stop-color="#ed6f01"/>
    </linearGradient>
    <linearGradient id="Dégradé_sans_nom_16" data-name="Dégradé sans nom 16" x1="-81.85" y1="292.3" x2="168.54" y2="218.26" gradientTransform="translate(0 401.2) scale(1 -1)" gradientUnits="userSpaceOnUse">
      <stop offset="0" stop-color="#ff9100"/>
      <stop offset="1" stop-color="#ed6f01"/>
    </linearGradient>
  </defs>
  <g class="st6">
    <g id="Calque_11" data-name="Calque_1">
      <g>
        <g>
          <path class="st13" d="M167.86,54.27v-18.68c7.86-1.95,13.69-9.06,13.69-17.53C181.55,8.08,173.46,0,163.49,0s-18.06,8.09-18.06,18.06c0,8.47,5.83,15.57,13.69,17.53v18.68c-19.38,2.17-34.45,18.61-34.45,38.57h77.63c0-19.96-15.07-36.39-34.45-38.57h.01Z"/>
          <path class="st4" d="M168.22,92.83h34.09c0-7.15-1.94-13.84-5.31-19.59-6.49-8.94-23.79-15.11-33.51-12.88,15.69,11.51,8.98,29.1,8.98,29.1l-4.25,3.36h0Z"/>
          <path class="st4" d="M168.22,92.83h34.09c0-7.15-1.94-13.84-5.31-19.59-6.49-8.94-23.79-15.11-33.51-12.88,15.69,11.51,8.98,29.1,8.98,29.1l-4.25,3.36h0Z"/>
          <path class="st3" d="M127.2,79.04c-1.63,4.29-2.53,8.93-2.53,13.79h77.63c0-4.86-.9-9.51-2.53-13.79-11.4-3.35-23.6-5.18-36.29-5.18s-24.89,1.82-36.29,5.18h.01Z"/>
          <path class="st4" d="M162.64,86.77c2.04-15.52-5.22-21.63-12.98-20.74,2.93-5.47,11.58-8.02,11.58-8.02v-27.48s5.98-.38,6.49-9.03c.51-8.65-6.36-13.1-12.98-9.54,2.09-10.46,19.07-9.97,23.44-4.38-3.28-4.59-8.64-7.58-14.7-7.58-9.98,0-18.06,8.09-18.06,18.06,0,8.47,5.83,15.57,13.69,17.53v18.68c-19.38,2.17-34.45,18.61-34.45,38.57h36.03c.92-1.59,1.61-3.57,1.94-6.07h0Z"/>
          <path class="st4" d="M162.64,86.77c2.04-15.52-5.22-21.63-12.98-20.74,2.93-5.47,11.58-8.02,11.58-8.02v-27.48s5.98-.38,6.49-9.03c.51-8.65-6.36-13.1-12.98-9.54,2.09-10.46,19.07-9.97,23.44-4.38-3.28-4.59-8.64-7.58-14.7-7.58-9.98,0-18.06,8.09-18.06,18.06,0,8.47,5.83,15.57,13.69,17.53v18.68c-19.38,2.17-34.45,18.61-34.45,38.57h36.03c.92-1.59,1.61-3.57,1.94-6.07h0Z"/>
          <ellipse class="st10" cx="163.49" cy="179.52" rx="81.47" ry="60.94"/>
          <path class="st15" d="M93.53,185.44c0-30.29,32.82-54.84,73.31-54.84,28.81,0,53.74,12.43,65.72,30.52-10.11-21.23-37.22-36.44-69.08-36.44-40.49,0-73.31,24.55-73.31,54.84,0,8.74,2.74,16.99,7.59,24.32-2.74-5.75-4.23-11.94-4.23-18.4h0Z"/>
          <path class="st7" d="M259.51,125.44h0c-20.29-27.69-55.72-46.04-96.02-46.04s-75.73,18.35-96.02,46.04h0c-21.44,0-38.82,17.38-38.82,38.81,0,15.84,9.49,29.45,23.08,35.48,10.65,45.61,56.64,79.91,111.76,79.91,6.84,0,13.53-.53,20.04-1.54l-8.47,46.83,70.64-76.01h0c14.66-13.37,25.13-30.31,29.55-49.19,13.6-6.04,23.09-19.65,23.09-35.49,0-21.44-17.38-38.82-38.82-38.82v.02ZM163.49,240.46c-45,0-81.47-27.28-81.47-60.94s36.48-60.94,81.47-60.94,81.47,27.28,81.47,60.94-36.48,60.94-81.47,60.94Z"/>
          <path class="st2" d="M244.96,179.52c0,33.66-36.48,60.94-81.47,60.94-6.41,0-12.65-.56-18.63-1.6-4.4,11.81-7.83,24.36-10.07,37.59,9.17,2.09,18.79,3.2,28.7,3.2,6.84,0,13.53-.53,20.04-1.54l-8.47,46.83,70.64-76.01h0c14.66-13.37,25.13-30.31,29.55-49.19,13.6-6.04,23.09-19.65,23.09-35.49,0-21.44-17.38-38.82-38.81-38.82h0c-11.26,3.28-22.64,8.27-33.73,14.82,11.96,10.61,19.18,24.31,19.18,39.27h-.02Z"/>
          <path class="st17" d="M244.96,179.52c0,33.66-36.48,60.94-81.47,60.94-6.41,0-12.65-.56-18.63-1.6-4.4,11.81-7.83,24.36-10.07,37.59,9.17,2.09,18.79,3.2,28.7,3.2,6.84,0,13.53-.53,20.04-1.54l-8.47,46.83,70.64-76.01h0c14.66-13.37,25.13-30.31,29.55-49.19,13.6-6.04,23.09-19.65,23.09-35.49,0-21.44-17.38-38.82-38.81-38.82h0c-11.26,3.28-22.64,8.27-33.73,14.82,11.96,10.61,19.18,24.31,19.18,39.27h-.02Z"/>
          <g>
            <path class="st11" d="M132.88,179.52c0,6.39-5.18,11.57-11.57,11.57s-11.57-5.18-11.57-11.57,5.18-11.57,11.57-11.57,11.57,5.18,11.57,11.57Z"/>
            <path class="st16" d="M175.06,179.52c0,6.39-5.18,11.57-11.57,11.57s-11.57-5.18-11.57-11.57,5.18-11.57,11.57-11.57,11.57,5.18,11.57,11.57Z"/>
            <path class="st1" d="M217.24,179.52c0,6.39-5.18,11.57-11.57,11.57s-11.57-5.18-11.57-11.57,5.18-11.57,11.57-11.57,11.57,5.18,11.57,11.57Z"/>
          </g>
          <path class="st5" d="M212.08,130.61c19.95,11.11,32.88,28.88,32.88,48.92,0,33.66-36.48,60.94-81.47,60.94-33.7,0-62.62-15.31-75.02-37.13,10.21,26.46,42.84,45.82,81.51,45.82,46.85,0,84.83-28.41,84.83-63.45,0-23.58-17.2-44.16-42.73-55.09h0Z"/>
          <path class="st9" d="M85.98,160.71c10.58-24.41,41.19-42.06,77.33-42.12,21.48-7,46.59-12.15,75.77-14.06-20.13-15.64-46.59-25.13-75.59-25.13-40.31,0-75.73,18.35-96.02,46.04h0c-21.44,0-38.82,17.38-38.82,38.81,0,15.84,9.49,29.45,23.08,35.48,0,0,9.76-18.36,34.25-39.03h0Z"/>
          <path class="st8" d="M85.98,160.71c10.58-24.41,41.19-42.06,77.33-42.12,21.48-7,46.59-12.15,75.77-14.06-20.13-15.64-46.59-25.13-75.59-25.13-40.31,0-75.73,18.35-96.02,46.04h0c-21.44,0-38.82,17.38-38.82,38.81,0,15.84,9.49,29.45,23.08,35.48,0,0,9.76-18.36,34.25-39.03h0Z"/>
          <path class="st14" d="M95.08,212.62c-8.26-9.53-13.06-20.9-13.06-33.1,0-20.55,13.6-38.73,34.44-49.76,9.9-17.05,23.62-33.78,41.96-50.25-38.19,1.47-71.51,19.41-90.95,45.93h0c-21.44,0-38.82,17.38-38.82,38.81,0,15.84,9.49,29.45,23.08,35.48,6.23,26.66,24.54,49.45,49.68,63.79-3.87-17.35-6.18-34.3-6.33-50.91h0Z"/>
          <path class="st12" d="M95.08,212.62c-8.26-9.53-13.06-20.9-13.06-33.1,0-20.55,13.6-38.73,34.44-49.76,9.9-17.05,23.62-33.78,41.96-50.25-38.19,1.47-71.51,19.41-90.95,45.93h0c-21.44,0-38.82,17.38-38.82,38.81,0,15.84,9.49,29.45,23.08,35.48,6.23,26.66,24.54,49.45,49.68,63.79-3.87-17.35-6.18-34.3-6.33-50.91h0Z"/>
        </g>
        <g>
          <path class="st0" d="M99.41,319.62v8.68H0v-8.76l99.41.08h0ZM94.63,343.2v8.6H0v-8.6h94.63ZM0,366.7h99.41v8.76H0v-8.76Z"/>
          <path class="st0" d="M190.05,366.78v8.68h-81.09v-55.76h9.08v47.08h72.01Z"/>
          <path class="st0" d="M196.43,371.67c0-1.05.4-1.98,1.2-2.8.8-.81,1.75-1.22,2.87-1.22s2.1.41,2.95,1.22c.85.82,1.27,1.75,1.27,2.8s-.43,1.96-1.27,2.72c-.85.76-1.83,1.14-2.95,1.14s-2.07-.38-2.87-1.14-1.2-1.67-1.2-2.72Z"/>
          <path class="st0" d="M261.26,319.78c.96,1.01,2.59,2.76,4.9,5.26s5,5.43,8.08,8.8,6.4,7.01,9.96,10.91,7.08,7.75,10.55,11.55c3.48,3.8,6.74,7.38,9.8,10.75,3.05,3.37,5.62,6.2,7.69,8.48h-12.11s-.65-.7-1.79-1.95-2.63-2.87-4.46-4.86-3.9-4.25-6.21-6.77-4.67-5.11-7.09-7.77c-2.42-2.66-4.78-5.24-7.09-7.77-2.31-2.52-4.37-4.77-6.17-6.73-1.81-1.96-3.82-4.17-6.05-6.61l-30.83,33.77h49.47l7.97,8.68h-77.58l50.98-55.76-.02.02Z"/>
          <path class="st0" d="M317.82,375.46v-55.76h9.16v55.76h-9.16Z"/>
        </g>
        <rect class="st0" x=".03" y="380.8" width="326.92" height="20.4"/>
        <g>
          <path class="st10" d="M69.18,393.8h-5.95l-1.23,2.8h-1.65l5.07-11.2h1.58l5.09,11.2h-1.68l-1.23-2.8h0ZM68.62,392.52l-2.42-5.49-2.42,5.49h4.84Z"/>
          <path class="st10" d="M73.76,385.4h1.6v9.81h6.06v1.39h-7.66v-11.2Z"/>
          <path class="st10" d="M98.26,385.4l-3.74,11.2h-1.68l-3.06-8.94-3.06,8.94h-1.71l-3.74-11.2h1.65l3.02,9.1,3.15-9.1h1.47l3.09,9.15,3.09-9.15h1.52Z"/>
          <path class="st10" d="M106.99,393.8h-5.95l-1.23,2.8h-1.65l5.07-11.2h1.58l5.09,11.2h-1.68l-1.23-2.8h0ZM106.43,392.52l-2.42-5.49-2.42,5.49h4.84Z"/>
          <path class="st10" d="M115.18,392.73v3.87h-1.58v-3.9l-4.45-7.3h1.71l3.58,5.9,3.6-5.9h1.58l-4.45,7.33h0Z"/>
          <path class="st10" d="M121.83,396.34c-.78-.26-1.4-.6-1.85-1.02l.59-1.25c.43.38.97.7,1.64.94.67.24,1.35.36,2.06.36.93,0,1.62-.16,2.08-.47s.69-.73.69-1.26c0-.38-.12-.7-.38-.94-.25-.24-.56-.42-.93-.55s-.89-.27-1.56-.43c-.84-.2-1.52-.41-2.04-.61-.52-.2-.96-.51-1.33-.94-.37-.42-.55-.99-.55-1.7,0-.6.16-1.14.47-1.62.31-.48.79-.86,1.43-1.15.64-.29,1.43-.43,2.38-.43.66,0,1.31.09,1.95.26s1.19.42,1.65.74l-.53,1.28c-.47-.3-.97-.53-1.5-.68s-1.06-.23-1.57-.23c-.91,0-1.59.17-2.04.5s-.68.76-.68,1.28c0,.38.13.7.38.94s.57.43.95.56.89.28,1.54.42c.84.2,1.52.41,2.03.61.51.2.95.51,1.32.93.37.42.55.98.55,1.68,0,.59-.16,1.12-.48,1.61s-.81.87-1.46,1.15-1.45.42-2.4.42c-.84,0-1.66-.13-2.44-.39h.03Z"/>
          <path class="st10" d="M144.88,385.4v11.2h-1.6v-4.99h-6.43v4.99h-1.6v-11.2h1.6v4.82h6.43v-4.82h1.6Z"/>
          <path class="st10" d="M155.38,393.8h-5.95l-1.23,2.8h-1.65l5.07-11.2h1.58l5.09,11.2h-1.68l-1.23-2.8h0ZM154.82,392.52l-2.42-5.49-2.42,5.49h4.84Z"/>
          <path class="st10" d="M167.74,386.44c.83.69,1.25,1.65,1.25,2.86s-.42,2.17-1.25,2.86-1.97,1.04-3.42,1.04h-2.77v3.39h-1.6v-11.2h4.37c1.45,0,2.59.35,3.42,1.04h0ZM166.59,391.17c.53-.43.8-1.05.8-1.86s-.27-1.43-.8-1.86-1.31-.65-2.32-.65h-2.72v5.02h2.72c1.01,0,1.79-.22,2.32-.65h0Z"/>
          <path class="st10" d="M179.14,386.44c.83.69,1.25,1.65,1.25,2.86s-.42,2.17-1.25,2.86-1.97,1.04-3.42,1.04h-2.77v3.39h-1.6v-11.2h4.37c1.45,0,2.59.35,3.42,1.04h0ZM177.98,391.17c.53-.43.8-1.05.8-1.86s-.27-1.43-.8-1.86-1.31-.65-2.32-.65h-2.72v5.02h2.72c1.01,0,1.79-.22,2.32-.65h0Z"/>
          <path class="st10" d="M187.02,392.73v3.87h-1.58v-3.9l-4.45-7.3h1.71l3.58,5.9,3.6-5.9h1.58l-4.45,7.33h.01Z"/>
          <path class="st10" d="M199.62,386.8h-3.84v-1.39h9.26v1.39h-3.84v9.81h-1.58v-9.81h0Z"/>
          <path class="st10" d="M208.62,395.99c-.91-.5-1.62-1.18-2.14-2.06s-.78-1.85-.78-2.93.26-2.05.78-2.93c.52-.87,1.23-1.56,2.14-2.06s1.93-.74,3.06-.74,2.13.25,3.04.74c.91.5,1.62,1.18,2.13,2.05s.77,1.85.77,2.94-.26,2.07-.77,2.94c-.51.87-1.22,1.55-2.13,2.05s-1.92.74-3.04.74-2.15-.25-3.06-.74ZM213.9,394.75c.66-.37,1.17-.89,1.55-1.54.38-.66.57-1.39.57-2.2s-.19-1.54-.57-2.2-.9-1.17-1.55-1.54-1.39-.56-2.22-.56-1.57.19-2.23.56-1.19.89-1.57,1.54c-.38.66-.57,1.39-.57,2.2s.19,1.54.57,2.2.9,1.17,1.57,1.54,1.41.56,2.23.56,1.56-.19,2.22-.56Z"/>
          <path class="st10" d="M234,385.4v11.2h-1.6v-4.99h-6.43v4.99h-1.6v-11.2h1.6v4.82h6.43v-4.82h1.6Z"/>
          <path class="st10" d="M245.49,395.21v1.39h-8.13v-11.2h7.9v1.39h-6.3v3.44h5.62v1.36h-5.62v3.62h6.53Z"/>
          <path class="st10" d="M248.08,385.4h1.6v9.81h6.06v1.39h-7.66v-11.2Z"/>
          <path class="st10" d="M265.38,386.44c.83.69,1.25,1.65,1.25,2.86s-.42,2.17-1.25,2.86-1.97,1.04-3.42,1.04h-2.77v3.39h-1.6v-11.2h4.37c1.45,0,2.59.35,3.42,1.04h0ZM264.22,391.17c.53-.43.8-1.05.8-1.86s-.27-1.43-.8-1.86-1.31-.65-2.32-.65h-2.72v5.02h2.72c1.01,0,1.79-.22,2.32-.65h0Z"/>
        </g>
      </g>
    </g>
  </g>
</svg>