<?xml version="1.0" encoding="UTF-8"?>
<svg id="Calque_1" xmlns="http://www.w3.org/2000/svg" version="1.1" xmlns:xlink="http://www.w3.org/1999/xlink" viewBox="0 0 326.98 401.2">
  <!-- Generator: Adobe Illustrator 29.5.1, SVG Export Plug-In . SVG Version: 2.1.0 Build 141)  -->
  <defs>
    <style>
      .st0 {
        fill: url(#Dégradé_sans_nom_11);
      }

      .st1 {
        fill: url(#Dégradé_sans_nom_7);
      }

      .st2 {
        fill: url(#Dégradé_sans_nom_6);
      }

      .st3 {
        fill: url(#Dégradé_sans_nom_14);
      }

      .st4 {
        fill: url(#Dégradé_sans_nom_13);
      }

      .st5 {
        fill: #fff;
      }

      .st6 {
        fill: url(#Dégradé_sans_nom_2);
      }

      .st7 {
        fill: url(#Dégradé_sans_nom);
      }

      .st8 {
        fill: url(#Dégradé_sans_nom_9);
      }

      .st9 {
        fill: url(#Dégradé_sans_nom_4);
      }

      .st10 {
        fill: url(#Dégradé_sans_nom_12);
      }

      .st11 {
        fill: url(#Dégradé_sans_nom_16);
      }

      .st12 {
        fill: url(#Dégradé_sans_nom_3);
      }

      .st13 {
        fill: url(#Dégradé_sans_nom_15);
      }

      .st14 {
        fill: url(#Dégradé_sans_nom_5);
      }

      .st15 {
        fill: url(#Dégradé_sans_nom_10);
      }

      .st16 {
        fill: url(#Dégradé_sans_nom_17);
      }

      .st17 {
        fill: url(#Dégradé_sans_nom_8);
      }
    </style>
    <linearGradient id="Dégradé_sans_nom" data-name="Dégradé sans nom" x1="66.24" y1="1.64" x2="66.03" y2="37.17" gradientTransform="translate(0 401.2) scale(1 -1)" gradientUnits="userSpaceOnUse">
      <stop offset="0" stop-color="#ff9100"/>
      <stop offset="1" stop-color="#ed6f01"/>
    </linearGradient>
    <linearGradient id="Dégradé_sans_nom_2" data-name="Dégradé sans nom 2" x1="77.61" y1="1.7" x2="77.4" y2="37.24" gradientTransform="translate(0 401.2) scale(1 -1)" gradientUnits="userSpaceOnUse">
      <stop offset="0" stop-color="#ff9100"/>
      <stop offset="1" stop-color="#ed6f01"/>
    </linearGradient>
    <linearGradient id="Dégradé_sans_nom_3" data-name="Dégradé sans nom 3" x1="89.85" y1="1.78" x2="89.64" y2="37.31" gradientTransform="translate(0 401.2) scale(1 -1)" gradientUnits="userSpaceOnUse">
      <stop offset="0" stop-color="#ff9100"/>
      <stop offset="1" stop-color="#ed6f01"/>
    </linearGradient>
    <linearGradient id="Dégradé_sans_nom_4" data-name="Dégradé sans nom 4" x1="104.05" y1="1.86" x2="103.84" y2="37.4" gradientTransform="translate(0 401.2) scale(1 -1)" gradientUnits="userSpaceOnUse">
      <stop offset="0" stop-color="#ff9100"/>
      <stop offset="1" stop-color="#ed6f01"/>
    </linearGradient>
    <linearGradient id="Dégradé_sans_nom_5" data-name="Dégradé sans nom 5" x1="114.47" y1="1.92" x2="114.26" y2="37.46" gradientTransform="translate(0 401.2) scale(1 -1)" gradientUnits="userSpaceOnUse">
      <stop offset="0" stop-color="#ff9100"/>
      <stop offset="1" stop-color="#ed6f01"/>
    </linearGradient>
    <linearGradient id="Dégradé_sans_nom_6" data-name="Dégradé sans nom 6" x1="124.31" y1="1.98" x2="124.1" y2="37.52" gradientTransform="translate(0 401.2) scale(1 -1)" gradientUnits="userSpaceOnUse">
      <stop offset="0" stop-color="#ff9100"/>
      <stop offset="1" stop-color="#ed6f01"/>
    </linearGradient>
    <linearGradient id="Dégradé_sans_nom_7" data-name="Dégradé sans nom 7" x1="140.11" y1="2.07" x2="139.9" y2="37.61" gradientTransform="translate(0 401.2) scale(1 -1)" gradientUnits="userSpaceOnUse">
      <stop offset="0" stop-color="#ff9100"/>
      <stop offset="1" stop-color="#ed6f01"/>
    </linearGradient>
    <linearGradient id="Dégradé_sans_nom_8" data-name="Dégradé sans nom 8" x1="152.43" y1="2.15" x2="152.22" y2="37.68" gradientTransform="translate(0 401.2) scale(1 -1)" gradientUnits="userSpaceOnUse">
      <stop offset="0" stop-color="#ff9100"/>
      <stop offset="1" stop-color="#ed6f01"/>
    </linearGradient>
    <linearGradient id="Dégradé_sans_nom_9" data-name="Dégradé sans nom 9" x1="164.51" y1="2.22" x2="164.3" y2="37.76" gradientTransform="translate(0 401.2) scale(1 -1)" gradientUnits="userSpaceOnUse">
      <stop offset="0" stop-color="#ff9100"/>
      <stop offset="1" stop-color="#ed6f01"/>
    </linearGradient>
    <linearGradient id="Dégradé_sans_nom_10" data-name="Dégradé sans nom 10" x1="175.91" y1="2.29" x2="175.7" y2="37.82" gradientTransform="translate(0 401.2) scale(1 -1)" gradientUnits="userSpaceOnUse">
      <stop offset="0" stop-color="#ff9100"/>
      <stop offset="1" stop-color="#ed6f01"/>
    </linearGradient>
    <linearGradient id="Dégradé_sans_nom_11" data-name="Dégradé sans nom 11" x1="186.3" y1="2.35" x2="186.09" y2="37.88" gradientTransform="translate(0 401.2) scale(1 -1)" gradientUnits="userSpaceOnUse">
      <stop offset="0" stop-color="#ff9100"/>
      <stop offset="1" stop-color="#ed6f01"/>
    </linearGradient>
    <linearGradient id="Dégradé_sans_nom_12" data-name="Dégradé sans nom 12" x1="200.48" y1="2.43" x2="200.27" y2="37.97" gradientTransform="translate(0 401.2) scale(1 -1)" gradientUnits="userSpaceOnUse">
      <stop offset="0" stop-color="#ff9100"/>
      <stop offset="1" stop-color="#ed6f01"/>
    </linearGradient>
    <linearGradient id="Dégradé_sans_nom_13" data-name="Dégradé sans nom 13" x1="211.71" y1="2.5" x2="211.5" y2="38.04" gradientTransform="translate(0 401.2) scale(1 -1)" gradientUnits="userSpaceOnUse">
      <stop offset="0" stop-color="#ff9100"/>
      <stop offset="1" stop-color="#ed6f01"/>
    </linearGradient>
    <linearGradient id="Dégradé_sans_nom_14" data-name="Dégradé sans nom 14" x1="229.23" y1="2.6" x2="229.02" y2="38.14" gradientTransform="translate(0 401.2) scale(1 -1)" gradientUnits="userSpaceOnUse">
      <stop offset="0" stop-color="#ff9100"/>
      <stop offset="1" stop-color="#ed6f01"/>
    </linearGradient>
    <linearGradient id="Dégradé_sans_nom_15" data-name="Dégradé sans nom 15" x1="241.44" y1="2.67" x2="241.23" y2="38.21" gradientTransform="translate(0 401.2) scale(1 -1)" gradientUnits="userSpaceOnUse">
      <stop offset="0" stop-color="#ff9100"/>
      <stop offset="1" stop-color="#ed6f01"/>
    </linearGradient>
    <linearGradient id="Dégradé_sans_nom_16" data-name="Dégradé sans nom 16" x1="251.93" y1="2.74" x2="251.72" y2="38.27" gradientTransform="translate(0 401.2) scale(1 -1)" gradientUnits="userSpaceOnUse">
      <stop offset="0" stop-color="#ff9100"/>
      <stop offset="1" stop-color="#ed6f01"/>
    </linearGradient>
    <linearGradient id="Dégradé_sans_nom_17" data-name="Dégradé sans nom 17" x1="262.14" y1="2.8" x2="261.93" y2="38.33" gradientTransform="translate(0 401.2) scale(1 -1)" gradientUnits="userSpaceOnUse">
      <stop offset="0" stop-color="#ff9100"/>
      <stop offset="1" stop-color="#ed6f01"/>
    </linearGradient>
  </defs>
  <g>
    <path class="st5" d="M167.86,54.27v-18.68c7.86-1.95,13.69-9.06,13.69-17.53,0-9.98-8.09-18.06-18.06-18.06s-18.06,8.09-18.06,18.06c0,8.47,5.83,15.57,13.69,17.53v18.68c-19.38,2.17-34.45,18.61-34.45,38.57h77.63c0-19.96-15.07-36.39-34.45-38.57h.01Z"/>
    <path class="st5" d="M132.89,179.52c0,6.39-5.18,11.58-11.58,11.58s-11.57-5.19-11.57-11.58,5.18-11.57,11.57-11.57,11.58,5.18,11.58,11.57Z"/>
    <path class="st5" d="M175.06,179.52c0,6.39-5.18,11.58-11.57,11.58s-11.57-5.19-11.57-11.58,5.18-11.57,11.57-11.57,11.57,5.18,11.57,11.57Z"/>
    <path class="st5" d="M232.57,161.12c-11.98-18.08-36.91-30.51-65.72-30.51-40.49,0-73.32,24.55-73.32,54.83,0,6.46,1.5,12.65,4.24,18.4-4.86-7.33-7.59-15.58-7.59-24.32,0-30.28,32.82-54.83,73.31-54.83,31.86,0,58.97,15.2,69.08,36.43h0Z"/>
    <path class="st5" d="M217.24,179.52c0,6.39-5.18,11.58-11.57,11.58s-11.57-5.19-11.57-11.58,5.18-11.57,11.57-11.57,11.57,5.18,11.57,11.57Z"/>
    <path class="st5" d="M232.57,161.12c-11.98-18.08-36.91-30.51-65.72-30.51-40.49,0-73.32,24.55-73.32,54.83,0,6.46,1.5,12.65,4.24,18.4-4.86-7.33-7.59-15.58-7.59-24.32,0-30.28,32.82-54.83,73.31-54.83,31.86,0,58.97,15.2,69.08,36.43h0Z"/>
    <path class="st5" d="M259.51,125.44c-13.57-18.53-33.92-32.87-57.97-40.33-11.9-3.7-24.7-5.71-38.05-5.71s-26.15,2.01-38.05,5.71c-24.05,7.46-44.4,21.8-57.97,40.33-10.72,0-20.42,4.35-27.45,11.37-7.03,7.02-11.37,16.73-11.37,27.45,0,15.83,9.49,29.44,23.09,35.48,10.65,45.61,56.64,79.91,111.75,79.91,6.84,0,13.53-.53,20.04-1.54l-8.47,46.83,70.65-76h0c14.65-13.39,25.12-30.32,29.54-49.2,13.59-6.04,23.08-19.65,23.08-35.48,0-21.44-17.38-38.82-38.82-38.82h0ZM163.49,240.46c-44.99,0-81.47-27.28-81.47-60.94s36.48-60.94,81.47-60.94,81.47,27.29,81.47,60.94-36.47,60.94-81.47,60.94Z"/>
    <g>
      <path class="st5" d="M132.89,179.52c0,6.39-5.18,11.58-11.58,11.58s-11.57-5.19-11.57-11.58,5.18-11.57,11.57-11.57,11.58,5.18,11.58,11.57Z"/>
      <path class="st5" d="M175.06,179.52c0,6.39-5.18,11.58-11.57,11.58s-11.57-5.19-11.57-11.58,5.18-11.57,11.57-11.57,11.57,5.18,11.57,11.57Z"/>
      <path class="st5" d="M217.24,179.52c0,6.39-5.18,11.58-11.57,11.58s-11.57-5.19-11.57-11.58,5.18-11.57,11.57-11.57,11.57,5.18,11.57,11.57Z"/>
    </g>
  </g>
  <g>
    <path class="st5" d="M99.41,319.62v8.68H0v-8.76l99.41.08h0ZM94.63,343.2v8.6H0v-8.6h94.63ZM0,366.7h99.41v8.76H0v-8.76Z"/>
    <path class="st5" d="M190.05,366.78v8.68h-81.09v-55.76h9.08v47.08h72.01Z"/>
    <path class="st5" d="M196.43,371.67c0-1.05.4-1.98,1.2-2.8.8-.81,1.75-1.22,2.87-1.22s2.1.41,2.95,1.22c.85.82,1.27,1.75,1.27,2.8s-.43,1.96-1.27,2.72c-.85.76-1.83,1.14-2.95,1.14s-2.07-.38-2.87-1.14-1.2-1.67-1.2-2.72Z"/>
    <path class="st5" d="M261.26,319.78c.96,1.01,2.59,2.76,4.9,5.26s5,5.43,8.08,8.8,6.4,7.01,9.96,10.91,7.08,7.75,10.55,11.55c3.48,3.8,6.74,7.38,9.8,10.75,3.05,3.37,5.62,6.2,7.69,8.48h-12.11s-.65-.7-1.79-1.95-2.63-2.87-4.46-4.86-3.9-4.25-6.21-6.77-4.67-5.11-7.09-7.77c-2.42-2.66-4.78-5.24-7.09-7.77-2.31-2.52-4.37-4.77-6.17-6.73-1.81-1.96-3.82-4.17-6.05-6.61l-30.83,33.77h49.47l7.97,8.68h-77.58l50.98-55.76-.02.02Z"/>
    <path class="st5" d="M317.82,375.46v-55.76h9.16v55.76h-9.16Z"/>
  </g>
  <rect class="st5" x=".03" y="380.8" width="326.92" height="20.4"/>
  <g>
    <path class="st7" d="M69.18,393.8h-5.95l-1.23,2.8h-1.65l5.07-11.2h1.58l5.09,11.2h-1.68l-1.23-2.8h0ZM68.62,392.52l-2.42-5.49-2.42,5.49h4.84Z"/>
    <path class="st6" d="M73.76,385.4h1.6v9.81h6.06v1.39h-7.66v-11.2Z"/>
    <path class="st12" d="M98.26,385.4l-3.74,11.2h-1.68l-3.06-8.94-3.06,8.94h-1.71l-3.74-11.2h1.65l3.02,9.1,3.15-9.1h1.47l3.09,9.15,3.09-9.15h1.52Z"/>
    <path class="st9" d="M106.99,393.8h-5.95l-1.23,2.8h-1.65l5.07-11.2h1.58l5.09,11.2h-1.68l-1.23-2.8h0ZM106.43,392.52l-2.42-5.49-2.42,5.49h4.84Z"/>
    <path class="st14" d="M115.18,392.73v3.87h-1.58v-3.9l-4.45-7.3h1.71l3.58,5.9,3.6-5.9h1.58l-4.45,7.33h0Z"/>
    <path class="st2" d="M121.83,396.34c-.78-.26-1.4-.6-1.85-1.02l.59-1.25c.43.38.97.7,1.64.94.67.24,1.35.36,2.06.36.93,0,1.62-.16,2.08-.47s.69-.73.69-1.26c0-.38-.12-.7-.38-.94-.25-.24-.56-.42-.93-.55s-.89-.27-1.56-.43c-.84-.2-1.52-.41-2.04-.61-.52-.2-.96-.51-1.33-.94-.37-.42-.55-.99-.55-1.7,0-.6.16-1.14.47-1.62.31-.48.79-.86,1.43-1.15.64-.29,1.43-.43,2.38-.43.66,0,1.31.09,1.95.26s1.19.42,1.65.74l-.53,1.28c-.47-.3-.97-.53-1.5-.68s-1.06-.23-1.57-.23c-.91,0-1.59.17-2.04.5s-.68.76-.68,1.28c0,.38.13.7.38.94s.57.43.95.56.89.28,1.54.42c.84.2,1.52.41,2.03.61.51.2.95.51,1.32.93.37.42.55.98.55,1.68,0,.59-.16,1.12-.48,1.61s-.81.87-1.46,1.15-1.45.42-2.4.42c-.84,0-1.66-.13-2.44-.39h.03Z"/>
    <path class="st1" d="M144.88,385.4v11.2h-1.6v-4.99h-6.43v4.99h-1.6v-11.2h1.6v4.82h6.43v-4.82h1.6Z"/>
    <path class="st17" d="M155.38,393.8h-5.95l-1.23,2.8h-1.65l5.07-11.2h1.58l5.09,11.2h-1.68l-1.23-2.8h0ZM154.82,392.52l-2.42-5.49-2.42,5.49h4.84Z"/>
    <path class="st8" d="M167.74,386.44c.83.69,1.25,1.65,1.25,2.86s-.42,2.17-1.25,2.86-1.97,1.04-3.42,1.04h-2.77v3.39h-1.6v-11.2h4.37c1.45,0,2.59.35,3.42,1.04h0ZM166.59,391.17c.53-.43.8-1.05.8-1.86s-.27-1.43-.8-1.86-1.31-.65-2.32-.65h-2.72v5.02h2.72c1.01,0,1.79-.22,2.32-.65h0Z"/>
    <path class="st15" d="M179.14,386.44c.83.69,1.25,1.65,1.25,2.86s-.42,2.17-1.25,2.86-1.97,1.04-3.42,1.04h-2.77v3.39h-1.6v-11.2h4.37c1.45,0,2.59.35,3.42,1.04h0ZM177.98,391.17c.53-.43.8-1.05.8-1.86s-.27-1.43-.8-1.86-1.31-.65-2.32-.65h-2.72v5.02h2.72c1.01,0,1.79-.22,2.32-.65h0Z"/>
    <path class="st0" d="M187.02,392.73v3.87h-1.58v-3.9l-4.45-7.3h1.71l3.58,5.9,3.6-5.9h1.58l-4.45,7.33h.01Z"/>
    <path class="st10" d="M199.62,386.8h-3.84v-1.39h9.26v1.39h-3.84v9.81h-1.58v-9.81h0Z"/>
    <path class="st4" d="M208.62,395.99c-.91-.5-1.62-1.18-2.14-2.06s-.78-1.85-.78-2.93.26-2.05.78-2.93c.52-.87,1.23-1.56,2.14-2.06s1.93-.74,3.06-.74,2.13.25,3.04.74c.91.5,1.62,1.18,2.13,2.05s.77,1.85.77,2.94-.26,2.07-.77,2.94c-.51.87-1.22,1.55-2.13,2.05s-1.92.74-3.04.74-2.15-.25-3.06-.74ZM213.9,394.75c.66-.37,1.17-.89,1.55-1.54.38-.66.57-1.39.57-2.2s-.19-1.54-.57-2.2-.9-1.17-1.55-1.54-1.39-.56-2.22-.56-1.57.19-2.23.56-1.19.89-1.57,1.54c-.38.66-.57,1.39-.57,2.2s.19,1.54.57,2.2.9,1.17,1.57,1.54,1.41.56,2.23.56,1.56-.19,2.22-.56Z"/>
    <path class="st3" d="M234,385.4v11.2h-1.6v-4.99h-6.43v4.99h-1.6v-11.2h1.6v4.82h6.43v-4.82h1.6Z"/>
    <path class="st13" d="M245.49,395.21v1.39h-8.13v-11.2h7.9v1.39h-6.3v3.44h5.62v1.36h-5.62v3.62h6.53Z"/>
    <path class="st11" d="M248.08,385.4h1.6v9.81h6.06v1.39h-7.66v-11.2Z"/>
    <path class="st16" d="M265.38,386.44c.83.69,1.25,1.65,1.25,2.86s-.42,2.17-1.25,2.86-1.97,1.04-3.42,1.04h-2.77v3.39h-1.6v-11.2h4.37c1.45,0,2.59.35,3.42,1.04h0ZM264.22,391.17c.53-.43.8-1.05.8-1.86s-.27-1.43-.8-1.86-1.31-.65-2.32-.65h-2.72v5.02h2.72c1.01,0,1.79-.22,2.32-.65h0Z"/>
  </g>
</svg>